<?xml version="1.0" encoding="utf-8"?>
<!-- Generator: Adobe Illustrator 21.1.0, SVG Export Plug-In . SVG Version: 6.00 Build 0)  -->
<!DOCTYPE svg PUBLIC "-//W3C//DTD SVG 1.1//EN" "http://www.w3.org/Graphics/SVG/1.1/DTD/svg11.dtd">
<svg version="1.1" xmlns="http://www.w3.org/2000/svg" xmlns:xlink="http://www.w3.org/1999/xlink" x="0px" y="0px"
	 viewBox="0 0 576 576" style="enable-background:new 0 0 576 576;" xml:space="preserve">
<style type="text/css">
	.st0{clip-path:url(#SVGID_2_);fill:#FF5806;}
	.st1{clip-path:url(#SVGID_2_);}
	.st2{opacity:7.000000e-02;clip-path:url(#SVGID_4_);enable-background:new    ;}
	.st3{fill:#FFFFFF;}
	.st4{display:none;}
</style>
<g id="cirlce">
	<g>
		<defs>
			<circle id="SVGID_1_" cx="288" cy="288" r="288"/>
		</defs>
		<clipPath id="SVGID_2_">
			<use xlink:href="#SVGID_1_"  style="overflow:visible;"/>
		</clipPath>
		<circle class="st0" cx="288" cy="288" r="288"/>
		<g id="shadow" class="st1">
			<g>
				<g>
					<defs>
						<path id="SVGID_3_" d="M99.4,548.4l-137-237.3c-10.7-18.6-10.7-41.4,0-60l137-237.3c10.7-18.6,30.5-30,52-30h274
							c21.4,0,41.3,11.4,52,30l137,237.3c10.7,18.6,10.7,41.4,0,60l-137,237.3c-10.7,18.6-30.5,30-52,30h-274
							C129.9,578.4,110.1,567,99.4,548.4z"/>
					</defs>
					<clipPath id="SVGID_4_">
						<use xlink:href="#SVGID_3_"  style="overflow:visible;"/>
					</clipPath>
					<polygon class="st2" points="575.1,385.5 400.5,210.9 211.7,228.2 175.1,264.7 206.2,295.8 175.4,350.5 408.4,583.4 
						464.8,583.5 					"/>
				</g>
			</g>
		</g>
		<g id="art_1_" class="st1">
			<g>
				<path class="st3" d="M396.4,209.4l-216.3,0c-3.5,0-6.3,2.8-6.3,6.3l0,44.7c0,3.5,2.8,6.3,6.3,6.3h216.3c3.5,0,6.3-2.8,6.3-6.3
					v-44.7C402.7,212.3,399.9,209.4,396.4,209.4 M362.9,251c-7.1,0-12.9-5.8-12.9-12.9c0-7.2,5.8-12.9,12.9-12.9
					c7.1,0,12.9,5.8,12.9,12.9C375.9,245.2,370.1,251,362.9,251"/>
				<path class="st3" d="M396.4,295.4l-216.3,0c-3.5,0-6.3,2.9-6.3,6.3l0,44.7c0,3.5,2.8,6.3,6.3,6.3h216.3c3.5,0,6.3-2.9,6.3-6.3
					v-44.7C402.7,298.2,399.9,295.4,396.4,295.4 M362.9,337c-7.1,0-12.9-5.8-12.9-12.9c0-7.2,5.8-12.9,12.9-12.9
					c7.1,0,12.9,5.8,12.9,12.9C375.9,331.2,370.1,337,362.9,337"/>
			</g>
		</g>
	</g>
</g>
<g id="guides" class="st4">
</g>
</svg>
